<svg xmlns="http://www.w3.org/2000/svg" viewBox="80 330 1260 800" version="1.1"><path d="M 341.852 349.250 L 333.220 371.500 311.860 372.711 C 300.112 373.378, 289.185 374.053, 287.579 374.211 C 284.911 374.475, 286.281 375.806, 303.318 389.500 C 321.491 404.108, 321.965 404.583, 321.456 407.690 C 321.168 409.444, 318.465 419.975, 315.451 431.091 C 312.436 442.208, 310.118 451.451, 310.299 451.632 C 310.480 451.814, 314.650 449.347, 319.564 446.152 C 333.464 437.114, 342.118 431.539, 346.758 428.632 L 351.016 425.965 360.258 431.853 C 365.341 435.092, 374.382 440.981, 380.349 444.939 C 386.316 448.897, 391.349 451.984, 391.534 451.800 C 391.718 451.615, 389.207 441.572, 385.953 429.482 C 382.699 417.392, 380.047 406.825, 380.060 406 C 380.074 405.175, 384.838 400.675, 390.647 396 C 396.457 391.325, 404.777 384.626, 409.135 381.113 C 413.494 377.601, 416.934 374.605, 416.780 374.456 C 416.626 374.308, 410.650 373.858, 403.500 373.458 C 396.350 373.057, 385.561 372.453, 379.524 372.115 L 368.548 371.500 360.024 349.253 C 355.336 337.018, 351.271 327.005, 350.992 327.003 C 350.713 327.002, 346.600 337.012, 341.852 349.250 M 554.698 671.635 C 554.314 672.019, 554 679.023, 554 687.199 L 554 702.066 565.250 701.783 L 576.500 701.500 576.500 686.500 L 576.500 671.500 565.948 671.218 C 560.145 671.063, 555.083 671.251, 554.698 671.635 M 680.393 685.024 C 647.024 691.024, 624.229 713.456, 617.445 746.968 C 614.086 763.561, 616.788 786.737, 623.667 800.339 C 637.246 827.190, 659.367 841.309, 690.032 842.701 C 704.162 843.342, 714.542 841.776, 725.658 837.326 C 748.206 828.299, 765.098 807.798, 770.629 782.745 C 772.994 772.034, 772.722 752.697, 770.065 742.500 C 762.697 714.232, 742.482 693.687, 715 686.537 C 707.407 684.561, 687.747 683.702, 680.393 685.024 M 810.712 690.750 C 810.488 691.163, 810.652 720.525, 811.075 756 C 811.498 791.475, 811.879 825.563, 811.922 831.750 L 812 843 823.428 843 L 834.856 843 835.255 797.750 C 835.694 748.025, 835.647 748.435, 842.428 735.117 C 850.275 719.703, 867.147 710.775, 885.625 712.258 C 898.864 713.321, 907.735 720.509, 912.200 733.792 C 914.404 740.349, 914.463 741.657, 914.778 791.750 L 915.101 843 926.607 843 L 938.113 843 937.734 790.250 C 937.314 731.939, 937.142 730.128, 930.795 717.236 C 926.446 708.400, 919.038 701.109, 909.815 696.586 C 900.966 692.245, 894.781 691, 882.074 691 C 864.813 691, 853.318 695.676, 841.250 707.607 L 834 714.774 833.989 706.137 C 833.983 701.387, 833.699 695.813, 833.358 693.750 L 832.738 690 821.928 690 C 815.983 690, 810.935 690.337, 810.712 690.750 M 680.272 707.437 C 671.370 709.594, 662.159 714.802, 655.590 721.393 C 630.716 746.352, 634.945 794.277, 663.642 812.634 C 672.885 818.547, 678.370 820.167, 691.026 820.724 C 704.419 821.313, 712.175 819.785, 720.957 814.829 C 733.135 807.956, 739.835 800.099, 745.161 786.447 C 749.078 776.406, 750.121 760.847, 747.654 749.260 C 743.238 728.523, 728.395 712.724, 708.448 707.528 C 701.467 705.710, 687.584 705.665, 680.272 707.437 M 554 781 L 554 844 565.500 844 L 577 844 577 781 L 577 718 565.500 718 L 554 718 554 781" stroke="none" fill="#0965ae" fill-rule="evenodd"/><path d="M 0 715.501 L 0 1431.001 715.750 1430.751 L 1431.500 1430.500 1431.751 715.250 L 1432.001 -0 716.001 -0 L 0 0 0 715.501 M 0.497 716 C 0.497 1109.525, 0.611 1270.512, 0.750 1073.750 C 0.889 876.987, 0.889 555.012, 0.750 358.250 C 0.611 161.487, 0.497 322.475, 0.497 716 M 341.853 349.250 L 333.222 371.500 311.861 372.657 C 300.112 373.293, 289.185 373.968, 287.579 374.157 C 284.889 374.473, 286.137 375.689, 303.318 389.500 C 321.491 404.108, 321.965 404.583, 321.456 407.690 C 321.168 409.444, 318.465 419.975, 315.451 431.091 C 312.436 442.208, 310.118 451.451, 310.299 451.632 C 310.480 451.814, 314.650 449.347, 319.564 446.152 C 333.464 437.114, 342.118 431.539, 346.758 428.632 L 351.016 425.965 360.258 431.853 C 365.341 435.092, 374.382 440.981, 380.349 444.939 C 386.316 448.897, 391.349 451.984, 391.534 451.800 C 391.718 451.615, 389.207 441.572, 385.953 429.482 C 382.699 417.392, 380.047 406.825, 380.060 406 C 380.074 405.175, 384.838 400.675, 390.647 396 C 396.457 391.325, 404.847 384.575, 409.292 381 C 416.381 375.298, 417.074 374.465, 414.937 374.211 C 413.597 374.052, 402.612 373.377, 390.526 372.711 L 368.552 371.500 360.026 349.253 C 355.337 337.018, 351.271 327.005, 350.992 327.003 C 350.713 327.002, 346.600 337.012, 341.853 349.250 M 1238 441.680 C 1234.975 443.648, 1228.736 448.463, 1224.137 452.379 C 1219.537 456.296, 1214.137 460.884, 1212.137 462.576 C 1204.108 469.366, 1196.062 470.717, 1173.435 469.076 C 1155.229 467.755, 1141.389 465.843, 1100.500 459 C 1069.172 453.757, 1048.986 450.754, 1034 449.109 C 1012.337 446.731, 1001.358 447.195, 1012.250 450.029 C 1014.587 450.637, 1027.750 454.891, 1041.500 459.483 C 1055.250 464.075, 1074.375 470.328, 1084 473.378 C 1093.625 476.429, 1101.259 478.942, 1100.965 478.962 C 1100.671 478.983, 1097.843 479.910, 1094.680 481.021 C 1067.333 490.633, 1022.472 489.599, 967 478.077 C 964.525 477.563, 961.600 476.813, 960.500 476.412 C 959.400 476.010, 958.725 475.922, 959 476.217 C 959.982 477.268, 1020.629 507.719, 1027.215 510.467 L 1033.929 513.270 1026.844 518.246 C 1018.429 524.155, 1004.290 537.922, 997.313 547 C 987.053 560.348, 979.289 572.931, 968.003 594.500 C 964.549 601.100, 961.272 607.073, 960.719 607.774 C 960.167 608.475, 959.930 609.264, 960.194 609.527 C 960.457 609.791, 965.584 604.042, 971.586 596.753 C 1000.006 562.241, 1019.661 542.417, 1042.384 525.345 C 1070.258 504.405, 1082.803 500.608, 1140.913 495.529 C 1150.490 494.692, 1158.509 493.824, 1158.733 493.601 C 1158.957 493.377, 1158.194 491.341, 1157.039 489.077 C 1155.462 485.986, 1155.258 484.861, 1156.220 484.562 C 1156.924 484.343, 1162.450 483.887, 1168.500 483.548 C 1191.008 482.286, 1198.156 480.030, 1218.257 467.844 C 1225.037 463.733, 1230.423 461.066, 1230.887 461.589 C 1231.333 462.090, 1232.498 466.879, 1233.476 472.230 C 1234.454 477.582, 1235.648 481.718, 1236.127 481.421 C 1236.607 481.125, 1237 480.054, 1237 479.042 C 1237 478.031, 1238.540 470.970, 1240.422 463.351 C 1243.468 451.020, 1246 439.718, 1246 438.451 C 1246 437.224, 1242.964 438.450, 1238 441.680 M 136 552.483 L 136 635 161.500 635 L 187 635 187 601.542 L 187 568.084 214.250 568.292 L 241.500 568.500 241.763 601.750 L 242.027 635 267.513 635 L 293 635 293 552.500 L 293 470 267.500 470 L 242 470 242 499 L 242 528 214.515 528 L 187.031 528 186.765 499.250 L 186.500 470.500 161.250 470.233 L 136 469.966 136 552.483 M 325.667 470.667 C 325.300 471.033, 325 508.166, 325 553.184 L 325 635.034 350.750 634.767 L 376.500 634.500 376.385 631.250 C 376.321 629.462, 376.209 592.450, 376.135 549 L 376 470 351.167 470 C 337.508 470, 326.033 470.300, 325.667 470.667 M 417 552.500 L 417 635 441 635 L 465 635 465 590.293 L 465 545.586 469.074 551.543 C 471.314 554.819, 484.966 574.825, 499.410 596 L 525.672 634.500 549.836 634.768 L 574 635.036 574 552.518 L 574 470 550.010 470 L 526.020 470 525.760 515.126 L 525.500 560.252 511.690 539.876 C 476.287 487.640, 466.400 473.150, 465.128 471.634 C 463.929 470.208, 460.785 470, 440.378 470 L 417 470 417 552.500 M 608 552.571 L 608 635.143 653.750 634.788 C 697.749 634.448, 699.844 634.345, 708.500 632.112 C 721.608 628.731, 729.058 624.853, 737.213 617.165 C 744.167 610.610, 746.214 607.948, 751.180 599 C 760.979 581.343, 762.966 543.486, 755.431 518 C 750.905 502.689, 739.656 487.606, 727.233 480.189 C 712.076 471.141, 703.498 470.013, 649.750 470.006 L 608 470 608 552.571 M 786.017 517.733 C 786.035 567.686, 786.686 579.603, 790.069 591.965 C 795.414 611.496, 809.141 626.369, 827.513 632.536 C 847.413 639.216, 880.866 639.631, 901.500 633.453 C 920.757 627.688, 936.174 610.909, 941.675 589.730 C 943.973 580.884, 944 580.126, 944 525.389 L 944 470 919.108 470 L 894.217 470 893.610 472.417 C 893.277 473.747, 893.030 498.015, 893.063 526.348 C 893.127 582.845, 893.096 583.192, 887.232 590.042 C 881.429 596.822, 877.117 598.500, 865.500 598.500 C 854.243 598.500, 849.526 596.791, 844.589 590.924 C 838.200 583.330, 838.547 586.756, 838 526 L 837.500 470.500 811.750 470.233 L 786 469.966 786.017 517.733 M 1243.076 492.650 C 1244.409 494.107, 1247.483 497.145, 1249.906 499.400 C 1260.391 509.156, 1262.301 511.257, 1265.474 516.526 C 1267.463 519.829, 1269.113 524.184, 1269.533 527.239 C 1270.163 531.823, 1269.997 532.584, 1268.010 534.193 C 1266.782 535.187, 1264.421 536, 1262.763 536 C 1259.796 536, 1250.038 531.584, 1244.857 527.897 C 1238.823 523.603, 1229.522 520.002, 1224.500 520.015 L 1219.500 520.028 1229 525.140 C 1242.258 532.273, 1249.751 537.699, 1269.586 554.528 C 1270.901 555.644, 1278.438 568.469, 1286.336 583.028 C 1302.886 613.540, 1308.092 622.855, 1313.845 632.251 C 1323.779 648.472, 1324.632 663.019, 1316.669 680.411 C 1315.156 683.717, 1314.572 686, 1315.239 686 C 1315.860 686, 1318.481 683.807, 1321.064 681.127 C 1327.762 674.179, 1330.324 666.927, 1329.765 656.500 C 1329.200 645.938, 1326.565 639.733, 1315.726 623.435 C 1310.406 615.437, 1300.612 597.791, 1290.471 577.935 C 1274.143 545.965, 1273.906 545.409, 1273.942 539.172 C 1273.962 535.691, 1274.177 532.523, 1274.418 532.132 C 1274.660 531.741, 1274.488 528.433, 1274.035 524.781 C 1272.322 510.972, 1264.451 500.366, 1250.875 493.574 C 1242.103 489.185, 1239.639 488.894, 1243.076 492.650 M 660 552.656 L 660.500 597.500 671.336 597.303 C 685.506 597.045, 692.025 595.627, 697.196 591.675 C 705.622 585.234, 708.391 575.439, 708.270 552.500 C 708.198 539.002, 707.845 535.422, 706.008 529.608 C 700.898 513.426, 693.766 508.941, 672 508.224 L 659.500 507.811 660 552.656 M 1165 511.118 C 1160.875 511.590, 1153.450 513.115, 1148.500 514.508 C 1137.636 517.565, 1117.502 527.103, 1120.479 527.783 C 1121.568 528.032, 1128.543 527.746, 1135.979 527.149 C 1143.416 526.552, 1157.825 525.560, 1168 524.944 C 1192.302 523.474, 1214.677 521.280, 1216.653 520.174 C 1217.844 519.508, 1216.412 518.643, 1210.868 516.678 C 1200.846 513.127, 1197.101 512.287, 1185.789 511.057 C 1175.133 509.897, 1175.681 509.895, 1165 511.118 M 1150.731 594.442 C 1141.068 597.701, 1135.895 602.498, 1130.878 612.852 C 1123.926 627.200, 1120.917 647.044, 1122.882 665.576 C 1125.270 688.096, 1129.332 701.572, 1139.889 722 C 1157.684 756.433, 1158.694 759.060, 1159.699 773.552 C 1160.353 782.982, 1158.704 789.945, 1154.103 797.186 C 1149.644 804.203, 1148.229 804.787, 1134 805.484 C 1119.512 806.193, 1115 806.769, 1115 807.909 C 1115 809.117, 1132.229 813.715, 1141.878 815.081 C 1153.090 816.669, 1170.059 815.754, 1183 812.863 C 1188.775 811.574, 1195.525 810.517, 1198 810.516 C 1204.777 810.511, 1206.052 811.725, 1218.250 829.770 C 1223.297 837.237, 1223.277 841.592, 1218.133 855.241 C 1214.050 866.073, 1209.149 880.919, 1204.184 897.500 C 1202.537 903, 1200.201 910.791, 1198.992 914.814 C 1194.957 928.242, 1197.767 924.110, 1207.028 903 C 1213.089 889.182, 1224.259 860.976, 1227.992 850.061 C 1231.750 839.071, 1231.621 834.827, 1227.281 826.644 C 1223.407 819.340, 1211.658 807.930, 1204.548 804.566 L 1198.734 801.816 1180.617 802.911 C 1170.653 803.513, 1160.347 804.004, 1157.715 804.003 L 1152.930 804 1156.642 800.750 C 1161.888 796.157, 1167.389 787.231, 1170.530 778.218 C 1174.140 767.860, 1175.069 751.200, 1172.526 742.417 C 1169.606 732.328, 1164.584 722.712, 1152.872 704.778 C 1134.778 677.073, 1132.377 671.096, 1133.398 656.306 C 1134.430 641.358, 1140.768 622.522, 1150.532 605.388 C 1155.924 595.927, 1156.704 595.091, 1156.212 599.306 C 1155.144 608.455, 1161.370 624.774, 1168.981 632.778 C 1177.024 641.236, 1188.118 646.989, 1217.862 658.127 C 1227.961 661.908, 1238.979 666.464, 1242.346 668.251 C 1250.283 672.463, 1259.712 681.879, 1263.801 689.678 C 1265.583 693.076, 1268.480 697.068, 1270.239 698.548 C 1273.143 700.991, 1273.993 701.191, 1279.469 700.725 C 1282.786 700.442, 1288.337 699.408, 1291.805 698.426 C 1299.573 696.227, 1298.300 695.084, 1287.193 694.282 C 1282.962 693.976, 1278.279 693.110, 1276.788 692.357 C 1275.296 691.604, 1271.491 687.728, 1268.333 683.744 C 1260.742 674.167, 1255.263 669.102, 1245 662.171 C 1239.410 658.395, 1233.932 655.651, 1229 654.153 C 1206.442 647.304, 1201.473 645.459, 1195.917 641.868 C 1192.590 639.717, 1188.816 636.955, 1187.531 635.729 C 1183.386 631.775, 1177.142 621.947, 1175.411 616.653 C 1174.484 613.819, 1172.896 609.848, 1171.882 607.828 C 1170.047 604.171, 1159.365 591.928, 1158.142 592.079 C 1157.789 592.123, 1154.454 593.186, 1150.731 594.442 M 953.790 620.333 C 942.964 638.331, 931.278 647.269, 914.500 650.386 C 911.672 650.911, 864.892 654.714, 833 657.012 C 825.025 657.587, 812.650 658.486, 805.500 659.010 C 798.350 659.534, 785.300 660.428, 776.500 660.996 C 767.700 661.564, 753.975 662.466, 746 663 C 732.460 663.906, 723.705 664.475, 684.750 666.981 C 676.362 667.520, 661.625 668.418, 652 668.975 C 578.838 673.215, 572.279 673.997, 615 673.388 C 633.425 673.125, 692.600 672.491, 746.500 671.978 C 800.400 671.465, 867.280 670.738, 895.121 670.361 L 945.743 669.677 946.399 662.589 C 947.391 651.876, 951.595 632.289, 954.917 622.902 C 956.544 618.304, 957.791 614.458, 957.688 614.354 C 957.584 614.251, 955.831 616.942, 953.790 620.333 M 320.500 671.069 C 307.732 673.841, 304.889 674.632, 298.864 677.087 C 270.859 688.503, 252.957 712.660, 248.958 744.431 C 245.121 774.913, 254.223 802.722, 274.184 821.502 C 285.546 832.193, 296.114 837.790, 313.214 842.175 C 325.634 845.361, 348.424 845.368, 359.500 842.191 C 371.822 838.656, 381.220 833.555, 389.221 826.060 L 396.300 819.429 383.210 809.694 L 370.119 799.959 365.310 804.643 C 349.420 820.118, 322.195 820.927, 303.247 806.486 C 290.511 796.780, 282.673 781.674, 281.199 763.996 C 278.927 736.748, 290.354 713.831, 311.513 703.203 C 319.819 699.031, 327.063 697.651, 337.614 698.229 C 348.178 698.808, 354.451 700.823, 362.326 706.166 C 366.146 708.758, 368.556 709.809, 369.326 709.218 C 377.557 702.904, 391 691.682, 391 691.126 C 391 688.722, 376.458 678.077, 371 676.485 C 369.625 676.083, 368.050 675.413, 367.500 674.994 C 366.950 674.575, 362.595 673.280, 357.823 672.116 C 348.559 669.857, 328.657 669.299, 320.500 671.069 M 554.698 671.635 C 554.314 672.019, 554 679.023, 554 687.199 L 554 702.066 565.250 701.783 L 576.500 701.500 576.500 686.500 L 576.500 671.500 565.948 671.218 C 560.145 671.063, 555.083 671.251, 554.698 671.635 M 145.866 678.750 C 144.731 681.362, 141.784 688.225, 139.317 694 C 136.850 699.775, 133.364 707.875, 131.569 712 C 129.774 716.125, 127.055 722.425, 125.526 726 C 123.997 729.575, 121.631 734.975, 120.268 738 C 117.122 744.982, 99.509 785.709, 96.482 793 C 95.226 796.025, 90.163 807.812, 85.231 819.193 C 79.932 831.420, 76.720 840.012, 77.381 840.193 C 77.997 840.362, 85.700 840.359, 94.500 840.186 L 110.500 839.871 117.500 821.933 L 124.500 803.994 160.907 804.247 L 197.314 804.500 204.407 822.173 C 209.985 836.072, 211.927 839.916, 213.500 840.173 C 214.600 840.353, 222.575 840.275, 231.221 840 L 246.943 839.500 243.122 831 C 237.967 819.533, 236.892 817.070, 204.734 743 C 200.078 732.275, 191.418 712.362, 185.491 698.750 L 174.715 674 161.322 674 L 147.929 674 145.866 678.750 M 401.582 674.867 C 401.288 675.344, 401.227 681.306, 401.449 688.117 L 401.851 700.500 426.425 700.767 L 451 701.035 451 770.467 L 451 839.900 466.086 840.200 C 474.384 840.365, 481.359 840.312, 481.586 840.083 C 481.814 839.854, 482 808.475, 482 770.351 L 482 701.035 506.750 700.767 L 531.500 700.500 531.791 689.500 C 531.951 683.450, 531.830 677.487, 531.522 676.250 L 530.962 674 466.540 674 C 431.108 674, 401.877 674.390, 401.582 674.867 M 680.393 685.024 C 647.024 691.024, 624.229 713.456, 617.445 746.968 C 614.086 763.561, 616.788 786.737, 623.667 800.339 C 637.246 827.190, 659.367 841.309, 690.032 842.701 C 704.162 843.342, 714.542 841.776, 725.658 837.326 C 748.206 828.299, 765.098 807.798, 770.629 782.745 C 772.994 772.034, 772.722 752.697, 770.065 742.500 C 762.697 714.232, 742.482 693.687, 715 686.537 C 707.407 684.561, 687.747 683.702, 680.393 685.024 M 810.712 690.750 C 810.488 691.163, 810.652 720.525, 811.075 756 C 811.498 791.475, 811.879 825.563, 811.922 831.750 L 812 843 823.428 843 L 834.856 843 835.255 797.750 C 835.694 748.025, 835.647 748.435, 842.428 735.117 C 850.275 719.703, 867.147 710.775, 885.625 712.258 C 898.864 713.321, 907.735 720.509, 912.200 733.792 C 914.404 740.349, 914.463 741.657, 914.778 791.750 L 915.101 843 926.607 843 L 938.113 843 937.734 790.250 C 937.314 731.939, 937.142 730.128, 930.795 717.236 C 926.446 708.400, 919.038 701.109, 909.815 696.586 C 900.966 692.245, 894.781 691, 882.074 691 C 864.813 691, 853.318 695.676, 841.250 707.607 L 834 714.774 833.989 706.137 C 833.983 701.387, 833.699 695.813, 833.358 693.750 L 832.738 690 821.928 690 C 815.983 690, 810.935 690.337, 810.712 690.750 M 680.272 707.437 C 671.370 709.594, 662.159 714.802, 655.590 721.393 C 630.716 746.352, 634.945 794.277, 663.642 812.634 C 672.885 818.547, 678.370 820.167, 691.026 820.724 C 704.419 821.313, 712.175 819.785, 720.957 814.829 C 733.135 807.956, 739.835 800.099, 745.161 786.447 C 747.763 779.776, 748.336 776.734, 748.728 767.500 C 749.547 748.203, 744.970 734.386, 733.802 722.448 C 726.951 715.123, 715.482 708.722, 706.114 706.994 C 698.920 705.667, 686.714 705.876, 680.272 707.437 M 159.134 714.111 C 158.627 715.425, 154.836 725.050, 150.710 735.500 C 140.140 762.269, 134 778.101, 134 778.585 C 134 778.813, 145.700 779, 160 779 C 181.996 779, 186 778.778, 186 777.556 C 186 776.762, 184.398 772.149, 182.441 767.306 C 180.483 762.463, 174.820 748.150, 169.857 735.500 C 164.893 722.850, 160.657 712.325, 160.444 712.111 C 160.231 711.898, 159.641 712.798, 159.134 714.111 M 554 781 L 554 844 565.500 844 L 577 844 577 781 L 577 718 565.500 718 L 554 718 554 781 M 1138.500 855.186 C 1108.911 864.485, 1088.827 870.730, 1085 871.822 C 1083.075 872.371, 1075.394 874.634, 1067.931 876.849 C 1052.600 881.401, 1043.555 883.879, 1027.077 888.043 C 1016.282 890.771, 1015.471 890.843, 1012.337 889.355 C 1009.197 887.866, 1001.910 878.442, 1000.526 874.083 C 1000.200 873.056, 999.161 872.055, 998.217 871.858 C 997.273 871.661, 787.475 871.725, 532 872 L 67.500 872.500 77 874.811 C 82.225 876.082, 90.100 877.967, 94.500 879.001 C 98.900 880.035, 107.450 882.046, 113.500 883.471 C 119.550 884.895, 128.550 886.986, 133.500 888.117 C 138.450 889.247, 143.805 890.584, 145.399 891.086 C 147.130 891.632, 315.032 892, 561.986 892 C 913.642 892, 977.086 892.212, 985.087 893.416 C 997.293 895.251, 999.683 895.860, 1004.500 898.359 C 1008.224 900.292, 1009.902 900.416, 1028.809 900.159 C 1049.595 899.876, 1054.309 900.366, 1067.500 904.181 C 1080.284 907.878, 1102.053 919.893, 1109.184 927.188 C 1112.867 930.956, 1117.600 938.464, 1123.517 949.925 C 1126.194 955.109, 1128.552 958.845, 1128.757 958.228 C 1128.963 957.610, 1128.427 952.037, 1127.566 945.843 C 1124.606 924.551, 1125.602 921.545, 1136.500 918.899 C 1143.191 917.274, 1147.640 915.350, 1152.477 911.988 C 1157.590 908.435, 1163.635 903, 1162.473 903 C 1161.985 903, 1151.393 906.375, 1138.935 910.500 C 1126.477 914.625, 1115.317 918, 1114.134 918 C 1111.427 918, 1064 894.346, 1064 892.996 C 1064 892.448, 1064.434 892, 1064.965 892 C 1065.495 892, 1071.233 889.394, 1077.715 886.210 C 1097.018 876.726, 1112.824 870, 1115.808 870 C 1120.983 870, 1127.747 875.369, 1143.925 892.316 C 1151.324 900.067, 1151.357 900.087, 1153.330 898.115 C 1155.302 896.143, 1155.265 896.084, 1142.997 881.318 C 1136.225 873.168, 1130.063 865.770, 1129.303 864.878 C 1128.071 863.431, 1128.492 863.070, 1133.211 861.536 C 1156.779 853.875, 1161.513 851.631, 1158.250 849.667 C 1157.838 849.418, 1148.950 851.902, 1138.500 855.186 M 290.083 924.413 C 290.313 924.640, 300.400 927.137, 312.500 929.962 C 324.600 932.787, 339 936.176, 344.500 937.493 C 350 938.809, 357.650 940.604, 361.500 941.480 C 367.838 942.923, 397.430 943.047, 674.490 942.787 L 980.481 942.500 980.610 935 C 980.680 930.875, 980.542 926.712, 980.302 925.750 C 979.887 924.088, 962.599 924, 634.766 924 C 444.961 924, 289.854 924.186, 290.083 924.413 M 1185.079 931.937 C 1180.584 935.511, 1175.998 940.358, 1173.140 944.556 C 1161.801 961.211, 1153.661 967.061, 1140.788 967.806 L 1133 968.257 1133 971.727 C 1133 973.636, 1133.721 976.716, 1134.601 978.573 C 1139.379 988.641, 1155.082 980.064, 1173.182 957.500 C 1176.712 953.100, 1183.013 944.978, 1187.184 939.452 C 1193.552 931.014, 1194.576 929.141, 1193.573 927.769 C 1192.514 926.321, 1191.544 926.797, 1185.079 931.937 M 1197.036 940.332 C 1196.980 943.161, 1201.871 956.717, 1205.755 964.500 C 1210.737 974.483, 1222.664 992.110, 1230.981 1001.780 C 1237.897 1009.821, 1251.825 1022.407, 1258.306 1026.472 L 1261.500 1028.475 1260 1026.341 C 1259.175 1025.167, 1254.932 1019.322, 1250.570 1013.353 C 1246.209 1007.384, 1240.174 998.900, 1237.159 994.500 C 1220.624 970.372, 1203.421 946.113, 1199.574 941.500 C 1197.555 939.080, 1197.065 938.854, 1197.036 940.332 M 510.500 976.084 C 512.150 976.586, 529.825 980.817, 549.777 985.486 L 586.054 993.976 783.027 994.238 C 913.799 994.412, 980.035 994.164, 980.105 993.500 C 980.495 989.772, 980.614 978.189, 980.276 976.750 C 979.886 975.089, 967.836 975.004, 743.683 975.086 C 599.684 975.138, 508.671 975.528, 510.500 976.084 M 1174.418 986 C 1174.810 987.375, 1175.952 993.920, 1176.955 1000.544 C 1180.317 1022.742, 1183.687 1031.965, 1191.284 1039.760 C 1195.504 1044.089, 1203.720 1048, 1208.597 1048 C 1209.983 1048, 1210.895 1048.360, 1210.623 1048.801 C 1210.351 1049.241, 1212.237 1050.208, 1214.814 1050.950 C 1221.439 1052.858, 1227.803 1056.196, 1233.699 1060.856 C 1238.041 1064.288, 1238.697 1064.554, 1238.214 1062.686 C 1236.503 1056.066, 1230.193 1050.451, 1223.302 1049.418 C 1218.706 1048.729, 1214.786 1045.998, 1200.784 1033.736 C 1189.999 1024.291, 1185.536 1016.345, 1177.394 992.089 C 1174.991 984.931, 1172.882 980.616, 1174.418 986 M 738.500 1029.430 C 743.450 1030.664, 753.575 1033.095, 761 1034.832 C 768.425 1036.569, 782.071 1039.792, 791.325 1041.995 L 808.149 1046 894.325 1045.998 L 980.500 1045.996 980.436 1038.248 C 980.401 1033.987, 980.288 1029.713, 980.186 1028.750 C 980.010 1027.093, 973.337 1027.005, 854.750 1027.093 L 729.500 1027.186 738.500 1029.430 M 990 1029 C 990 1029.550, 991.350 1030, 993 1030 L 996 1030 996 1038 C 996 1042.667, 996.417 1046, 997 1046 C 997.583 1046, 998 1042.667, 998 1038 L 998 1030 1001 1030 C 1002.650 1030, 1004 1029.550, 1004 1029 C 1004 1028.429, 1001 1028, 997 1028 C 993 1028, 990 1028.429, 990 1029 M 1006 1037 C 1006 1042.333, 1006.407 1046, 1007 1046 C 1007.567 1046, 1008 1043.100, 1008 1039.300 C 1008 1031.771, 1008.674 1031.933, 1011.960 1040.250 C 1013.210 1043.412, 1014.570 1046, 1014.983 1046 C 1015.395 1046, 1017.119 1042.963, 1018.814 1039.250 L 1021.894 1032.500 1021.947 1039.250 C 1021.977 1043.048, 1022.437 1046, 1023 1046 C 1023.593 1046, 1024 1042.309, 1024 1036.927 C 1024 1029.107, 1023.777 1027.898, 1022.385 1028.177 C 1021.480 1028.358, 1019.643 1031.250, 1018.208 1034.750 C 1016.800 1038.188, 1015.373 1041, 1015.039 1041 C 1014.704 1041, 1013.337 1038.075, 1012 1034.500 C 1010.256 1029.836, 1009.065 1028, 1007.785 1028 C 1006.204 1028, 1006 1029.029, 1006 1037 M 1274.655 1040.829 C 1273.745 1041.835, 1273 1042.976, 1273 1043.366 C 1273 1043.756, 1279.034 1051.142, 1286.409 1059.780 C 1293.784 1068.418, 1299.636 1075.780, 1299.413 1076.141 C 1298.426 1077.738, 1281.146 1084.112, 1273.732 1085.614 C 1258.975 1088.605, 1243.029 1086.109, 1237.441 1079.935 C 1234.898 1077.125, 1234 1077.541, 1234 1081.532 C 1234 1088.292, 1237.739 1094.042, 1242.968 1095.322 C 1245.874 1096.034, 1265.790 1093.265, 1288.402 1089.005 C 1310.408 1084.860, 1310.190 1084.929, 1311.261 1081.718 C 1312.261 1078.716, 1312.894 1079.641, 1299.494 1064.500 C 1284.914 1048.027, 1276.796 1039, 1276.561 1039 C 1276.423 1039, 1275.565 1039.823, 1274.655 1040.829" stroke="none" fill="#ffffff" fill-rule="evenodd"/><path d="M 1238 441.680 C 1234.975 443.648, 1228.736 448.463, 1224.137 452.379 C 1219.537 456.296, 1214.137 460.884, 1212.137 462.576 C 1204.108 469.366, 1196.062 470.717, 1173.435 469.076 C 1155.229 467.755, 1141.389 465.843, 1100.500 459 C 1069.172 453.757, 1048.986 450.754, 1034 449.109 C 1012.337 446.731, 1001.358 447.195, 1012.250 450.029 C 1014.587 450.637, 1027.750 454.891, 1041.500 459.483 C 1055.250 464.075, 1074.375 470.328, 1084 473.378 C 1093.625 476.429, 1101.259 478.942, 1100.965 478.962 C 1100.671 478.983, 1097.843 479.910, 1094.680 481.021 C 1067.333 490.633, 1022.472 489.599, 967 478.077 C 964.525 477.563, 961.600 476.813, 960.500 476.412 C 959.400 476.010, 958.725 475.922, 959 476.217 C 959.982 477.268, 1020.629 507.719, 1027.215 510.467 L 1033.929 513.270 1026.844 518.246 C 1018.429 524.155, 1004.290 537.922, 997.313 547 C 987.053 560.348, 979.289 572.931, 968.003 594.500 C 964.549 601.100, 961.272 607.073, 960.719 607.774 C 960.167 608.475, 959.930 609.264, 960.194 609.527 C 960.457 609.791, 965.584 604.042, 971.586 596.753 C 1000.006 562.241, 1019.661 542.417, 1042.384 525.345 C 1070.258 504.405, 1082.803 500.608, 1140.913 495.529 C 1150.490 494.692, 1158.509 493.824, 1158.733 493.601 C 1158.957 493.377, 1158.194 491.341, 1157.039 489.077 C 1155.462 485.986, 1155.258 484.861, 1156.220 484.562 C 1156.924 484.343, 1162.450 483.887, 1168.500 483.548 C 1191.008 482.286, 1198.156 480.030, 1218.257 467.844 C 1225.037 463.733, 1230.423 461.066, 1230.887 461.589 C 1231.333 462.090, 1232.498 466.879, 1233.476 472.230 C 1234.454 477.582, 1235.648 481.718, 1236.127 481.421 C 1236.607 481.125, 1237 480.054, 1237 479.042 C 1237 478.031, 1238.540 470.970, 1240.422 463.351 C 1243.468 451.020, 1246 439.718, 1246 438.451 C 1246 437.224, 1242.964 438.450, 1238 441.680 M 136 552.483 L 136 635 161.500 635 L 187 635 187 601.542 L 187 568.084 214.250 568.292 L 241.500 568.500 241.763 601.750 L 242.027 635 267.513 635 L 293 635 293 552.500 L 293 470 267.500 470 L 242 470 242 499 L 242 528 214.515 528 L 187.031 528 186.765 499.250 L 186.500 470.500 161.250 470.233 L 136 469.966 136 552.483 M 325.667 470.667 C 325.300 471.033, 325 508.166, 325 553.184 L 325 635.034 350.750 634.767 L 376.500 634.500 376.385 631.250 C 376.321 629.462, 376.209 592.450, 376.135 549 L 376 470 351.167 470 C 337.508 470, 326.033 470.300, 325.667 470.667 M 417 552.500 L 417 635 441 635 L 465 635 465 590.293 L 465 545.586 469.074 551.543 C 471.314 554.819, 484.966 574.825, 499.410 596 L 525.672 634.500 549.836 634.768 L 574 635.036 574 552.518 L 574 470 550.010 470 L 526.020 470 525.760 515.126 L 525.500 560.252 511.690 539.876 C 476.287 487.640, 466.400 473.150, 465.128 471.634 C 463.929 470.208, 460.785 470, 440.378 470 L 417 470 417 552.500 M 608 552.571 L 608 635.143 653.750 634.788 C 697.749 634.448, 699.844 634.345, 708.500 632.112 C 721.608 628.731, 729.058 624.853, 737.213 617.165 C 744.167 610.610, 746.214 607.948, 751.180 599 C 760.979 581.343, 762.966 543.486, 755.431 518 C 750.905 502.689, 739.656 487.606, 727.233 480.189 C 712.076 471.141, 703.498 470.013, 649.750 470.006 L 608 470 608 552.571 M 786.017 517.733 C 786.035 567.686, 786.686 579.603, 790.069 591.965 C 795.414 611.496, 809.141 626.369, 827.513 632.536 C 847.413 639.216, 880.866 639.631, 901.500 633.453 C 920.757 627.688, 936.174 610.909, 941.675 589.730 C 943.973 580.884, 944 580.126, 944 525.389 L 944 470 919.108 470 L 894.217 470 893.610 472.417 C 893.277 473.747, 893.030 498.015, 893.063 526.348 C 893.127 582.845, 893.096 583.192, 887.232 590.042 C 881.429 596.822, 877.117 598.500, 865.500 598.500 C 854.243 598.500, 849.526 596.791, 844.589 590.924 C 838.200 583.330, 838.547 586.756, 838 526 L 837.500 470.500 811.750 470.233 L 786 469.966 786.017 517.733 M 1243.076 492.650 C 1244.409 494.107, 1247.483 497.145, 1249.906 499.400 C 1260.391 509.156, 1262.301 511.257, 1265.474 516.526 C 1267.463 519.829, 1269.113 524.184, 1269.533 527.239 C 1270.163 531.823, 1269.997 532.584, 1268.010 534.193 C 1266.782 535.187, 1264.421 536, 1262.763 536 C 1259.796 536, 1250.038 531.584, 1244.857 527.897 C 1238.823 523.603, 1229.522 520.002, 1224.500 520.015 L 1219.500 520.028 1229 525.140 C 1242.258 532.273, 1249.751 537.699, 1269.586 554.528 C 1270.901 555.644, 1278.438 568.469, 1286.336 583.028 C 1302.886 613.540, 1308.092 622.855, 1313.845 632.251 C 1323.779 648.472, 1324.632 663.019, 1316.669 680.411 C 1315.156 683.717, 1314.572 686, 1315.239 686 C 1315.860 686, 1318.481 683.807, 1321.064 681.127 C 1327.762 674.179, 1330.324 666.927, 1329.765 656.500 C 1329.200 645.938, 1326.565 639.733, 1315.726 623.435 C 1310.406 615.437, 1300.612 597.791, 1290.471 577.935 C 1274.143 545.965, 1273.906 545.409, 1273.942 539.172 C 1273.962 535.691, 1274.177 532.523, 1274.418 532.132 C 1274.660 531.741, 1274.488 528.433, 1274.035 524.781 C 1272.322 510.972, 1264.451 500.366, 1250.875 493.574 C 1242.103 489.185, 1239.639 488.894, 1243.076 492.650 M 660 552.656 L 660.500 597.500 671.336 597.303 C 685.506 597.045, 692.025 595.627, 697.196 591.675 C 705.622 585.234, 708.391 575.439, 708.270 552.500 C 708.198 539.002, 707.845 535.422, 706.008 529.608 C 700.898 513.426, 693.766 508.941, 672 508.224 L 659.500 507.811 660 552.656 M 1165 511.118 C 1160.875 511.590, 1153.450 513.115, 1148.500 514.508 C 1137.636 517.565, 1117.502 527.103, 1120.479 527.783 C 1121.568 528.032, 1128.543 527.746, 1135.979 527.149 C 1143.416 526.552, 1157.825 525.560, 1168 524.944 C 1192.302 523.474, 1214.677 521.280, 1216.653 520.174 C 1217.844 519.508, 1216.412 518.643, 1210.868 516.678 C 1200.846 513.127, 1197.101 512.287, 1185.789 511.057 C 1175.133 509.897, 1175.681 509.895, 1165 511.118 M 1150.731 594.442 C 1141.068 597.701, 1135.895 602.498, 1130.878 612.852 C 1123.926 627.200, 1120.917 647.044, 1122.882 665.576 C 1125.270 688.096, 1129.332 701.572, 1139.889 722 C 1157.684 756.433, 1158.694 759.060, 1159.699 773.552 C 1160.353 782.982, 1158.704 789.945, 1154.103 797.186 C 1149.644 804.203, 1148.229 804.787, 1134 805.484 C 1119.512 806.193, 1115 806.769, 1115 807.909 C 1115 809.117, 1132.229 813.715, 1141.878 815.081 C 1153.090 816.669, 1170.059 815.754, 1183 812.863 C 1188.775 811.574, 1195.525 810.517, 1198 810.516 C 1204.777 810.511, 1206.052 811.725, 1218.250 829.770 C 1223.297 837.237, 1223.277 841.592, 1218.133 855.241 C 1214.050 866.073, 1209.149 880.919, 1204.184 897.500 C 1202.537 903, 1200.201 910.791, 1198.992 914.814 C 1194.957 928.242, 1197.767 924.110, 1207.028 903 C 1213.089 889.182, 1224.259 860.976, 1227.992 850.061 C 1231.750 839.071, 1231.621 834.827, 1227.281 826.644 C 1223.407 819.340, 1211.658 807.930, 1204.548 804.566 L 1198.734 801.816 1180.617 802.911 C 1170.653 803.513, 1160.347 804.004, 1157.715 804.003 L 1152.930 804 1156.642 800.750 C 1161.888 796.157, 1167.389 787.231, 1170.530 778.218 C 1174.140 767.860, 1175.069 751.200, 1172.526 742.417 C 1169.606 732.328, 1164.584 722.712, 1152.872 704.778 C 1134.778 677.073, 1132.377 671.096, 1133.398 656.306 C 1134.430 641.358, 1140.768 622.522, 1150.532 605.388 C 1155.924 595.927, 1156.704 595.091, 1156.212 599.306 C 1155.144 608.455, 1161.370 624.774, 1168.981 632.778 C 1177.024 641.236, 1188.118 646.989, 1217.862 658.127 C 1227.961 661.908, 1238.979 666.464, 1242.346 668.251 C 1250.283 672.463, 1259.712 681.879, 1263.801 689.678 C 1268.229 698.123, 1271.838 701.019, 1277.827 700.933 C 1283.538 700.851, 1295.209 697.872, 1295.710 696.369 C 1296.120 695.140, 1290.690 694.028, 1284.200 694.011 C 1278.017 693.995, 1274.819 691.926, 1268.333 683.744 C 1260.742 674.167, 1255.263 669.102, 1245 662.171 C 1239.410 658.395, 1233.932 655.651, 1229 654.153 C 1206.442 647.304, 1201.473 645.459, 1195.917 641.868 C 1192.590 639.717, 1188.816 636.955, 1187.531 635.729 C 1183.386 631.775, 1177.142 621.947, 1175.411 616.653 C 1174.484 613.819, 1172.896 609.848, 1171.882 607.828 C 1170.047 604.171, 1159.365 591.928, 1158.142 592.079 C 1157.789 592.123, 1154.454 593.186, 1150.731 594.442 M 953.790 620.333 C 942.964 638.331, 931.278 647.269, 914.500 650.386 C 911.672 650.911, 864.892 654.714, 833 657.012 C 825.025 657.587, 812.650 658.486, 805.500 659.010 C 798.350 659.534, 785.300 660.428, 776.500 660.996 C 767.700 661.564, 753.975 662.466, 746 663 C 732.460 663.906, 723.705 664.475, 684.750 666.981 C 676.362 667.520, 661.625 668.418, 652 668.975 C 578.838 673.215, 572.279 673.997, 615 673.388 C 633.425 673.125, 692.600 672.491, 746.500 671.978 C 800.400 671.465, 867.280 670.738, 895.121 670.361 L 945.743 669.677 946.399 662.589 C 947.391 651.876, 951.595 632.289, 954.917 622.902 C 956.544 618.304, 957.791 614.458, 957.688 614.354 C 957.584 614.251, 955.831 616.942, 953.790 620.333 M 320.500 671.069 C 307.732 673.841, 304.889 674.632, 298.864 677.087 C 270.859 688.503, 252.957 712.660, 248.958 744.431 C 245.121 774.913, 254.223 802.722, 274.184 821.502 C 285.546 832.193, 296.114 837.790, 313.214 842.175 C 325.634 845.361, 348.424 845.368, 359.500 842.191 C 371.822 838.656, 381.220 833.555, 389.221 826.060 L 396.300 819.429 383.210 809.694 L 370.119 799.959 365.310 804.643 C 353.376 816.265, 333.639 819.976, 316.305 813.856 C 302.454 808.966, 289.002 794.589, 284.156 779.496 C 279.517 765.047, 279.884 746.201, 285.059 733.225 C 290.694 719.092, 299.364 709.158, 311.127 703.357 C 319.915 699.022, 327.012 697.648, 337.614 698.229 C 348.178 698.808, 354.451 700.823, 362.326 706.166 C 366.146 708.758, 368.556 709.809, 369.326 709.218 C 377.557 702.904, 391 691.682, 391 691.126 C 391 688.722, 376.458 678.077, 371 676.485 C 369.625 676.083, 368.050 675.413, 367.500 674.994 C 366.950 674.575, 362.595 673.280, 357.823 672.116 C 348.559 669.857, 328.657 669.299, 320.500 671.069 M 145.866 678.750 C 144.731 681.362, 141.784 688.225, 139.317 694 C 136.850 699.775, 133.364 707.875, 131.569 712 C 129.774 716.125, 127.055 722.425, 125.526 726 C 123.997 729.575, 121.631 734.975, 120.268 738 C 117.122 744.982, 99.509 785.709, 96.482 793 C 95.226 796.025, 90.163 807.812, 85.231 819.193 C 79.932 831.420, 76.720 840.012, 77.381 840.193 C 77.997 840.362, 85.700 840.359, 94.500 840.186 L 110.500 839.871 117.500 821.933 L 124.500 803.994 160.907 804.247 L 197.314 804.500 204.407 822.173 C 209.985 836.072, 211.927 839.916, 213.500 840.173 C 214.600 840.353, 222.575 840.275, 231.221 840 L 246.943 839.500 243.122 831 C 237.967 819.533, 236.892 817.070, 204.734 743 C 200.078 732.275, 191.418 712.362, 185.491 698.750 L 174.715 674 161.322 674 L 147.929 674 145.866 678.750 M 401.582 674.867 C 401.288 675.344, 401.227 681.306, 401.449 688.117 L 401.851 700.500 426.425 700.767 L 451 701.035 451 770.467 L 451 839.900 466.086 840.200 C 474.384 840.365, 481.359 840.312, 481.586 840.083 C 481.814 839.854, 482 808.475, 482 770.351 L 482 701.035 506.750 700.767 L 531.500 700.500 531.791 689.500 C 531.951 683.450, 531.830 677.487, 531.522 676.250 L 530.962 674 466.540 674 C 431.108 674, 401.877 674.390, 401.582 674.867 M 159.134 714.111 C 158.627 715.425, 154.836 725.050, 150.710 735.500 C 140.140 762.269, 134 778.101, 134 778.585 C 134 778.813, 145.700 779, 160 779 C 181.996 779, 186 778.778, 186 777.556 C 186 776.762, 184.398 772.149, 182.441 767.306 C 180.483 762.463, 174.820 748.150, 169.857 735.500 C 164.893 722.850, 160.657 712.325, 160.444 712.111 C 160.231 711.898, 159.641 712.798, 159.134 714.111 M 1138.500 855.186 C 1108.911 864.485, 1088.827 870.730, 1085 871.822 C 1083.075 872.371, 1075.394 874.634, 1067.931 876.849 C 1052.600 881.401, 1043.555 883.879, 1027.077 888.043 C 1016.282 890.771, 1015.471 890.843, 1012.337 889.355 C 1009.197 887.866, 1001.910 878.442, 1000.526 874.083 C 1000.200 873.056, 999.161 872.055, 998.217 871.858 C 997.273 871.661, 787.475 871.725, 532 872 L 67.500 872.500 77 874.811 C 82.225 876.082, 90.100 877.967, 94.500 879.001 C 98.900 880.035, 107.450 882.046, 113.500 883.471 C 119.550 884.895, 128.550 886.986, 133.500 888.117 C 138.450 889.247, 143.805 890.584, 145.399 891.086 C 147.130 891.632, 315.032 892, 561.986 892 C 913.642 892, 977.086 892.212, 985.087 893.416 C 997.293 895.251, 999.683 895.860, 1004.500 898.359 C 1008.224 900.292, 1009.902 900.416, 1028.809 900.159 C 1049.595 899.876, 1054.309 900.366, 1067.500 904.181 C 1080.284 907.878, 1102.053 919.893, 1109.184 927.188 C 1112.867 930.956, 1117.600 938.464, 1123.517 949.925 C 1126.194 955.109, 1128.552 958.845, 1128.757 958.228 C 1128.963 957.610, 1128.427 952.037, 1127.566 945.843 C 1124.606 924.551, 1125.602 921.545, 1136.500 918.899 C 1143.191 917.274, 1147.640 915.350, 1152.477 911.988 C 1157.590 908.435, 1163.635 903, 1162.473 903 C 1161.985 903, 1151.393 906.375, 1138.935 910.500 C 1126.477 914.625, 1115.317 918, 1114.134 918 C 1111.427 918, 1064 894.346, 1064 892.996 C 1064 892.448, 1064.434 892, 1064.965 892 C 1065.495 892, 1071.233 889.394, 1077.715 886.210 C 1097.018 876.726, 1112.824 870, 1115.808 870 C 1120.983 870, 1127.747 875.369, 1143.925 892.316 C 1151.324 900.067, 1151.357 900.087, 1153.330 898.115 C 1155.302 896.143, 1155.265 896.084, 1142.997 881.318 C 1136.225 873.168, 1130.063 865.770, 1129.303 864.878 C 1128.071 863.431, 1128.492 863.070, 1133.211 861.536 C 1156.779 853.875, 1161.513 851.631, 1158.250 849.667 C 1157.838 849.418, 1148.950 851.902, 1138.500 855.186 M 290.083 924.413 C 290.313 924.640, 300.400 927.137, 312.500 929.962 C 324.600 932.787, 339 936.176, 344.500 937.493 C 350 938.809, 357.650 940.604, 361.500 941.480 C 367.838 942.923, 397.430 943.047, 674.490 942.787 L 980.481 942.500 980.610 935 C 980.680 930.875, 980.542 926.712, 980.302 925.750 C 979.887 924.088, 962.599 924, 634.766 924 C 444.961 924, 289.854 924.186, 290.083 924.413 M 1185.079 931.937 C 1180.584 935.511, 1175.998 940.358, 1173.140 944.556 C 1161.801 961.211, 1153.661 967.061, 1140.788 967.806 L 1133 968.257 1133 971.727 C 1133 973.636, 1133.721 976.716, 1134.601 978.573 C 1139.379 988.641, 1155.082 980.064, 1173.182 957.500 C 1176.712 953.100, 1183.013 944.978, 1187.184 939.452 C 1193.552 931.014, 1194.576 929.141, 1193.573 927.769 C 1192.514 926.321, 1191.544 926.797, 1185.079 931.937 M 1197.036 940.332 C 1196.980 943.161, 1201.871 956.717, 1205.755 964.500 C 1210.737 974.483, 1222.664 992.110, 1230.981 1001.780 C 1237.897 1009.821, 1251.825 1022.407, 1258.306 1026.472 L 1261.500 1028.475 1260 1026.341 C 1259.175 1025.167, 1254.932 1019.322, 1250.570 1013.353 C 1246.209 1007.384, 1240.174 998.900, 1237.159 994.500 C 1220.624 970.372, 1203.421 946.113, 1199.574 941.500 C 1197.555 939.080, 1197.065 938.854, 1197.036 940.332 M 510.500 976.084 C 512.150 976.586, 529.825 980.817, 549.777 985.486 L 586.054 993.976 783.027 994.238 C 913.799 994.412, 980.035 994.164, 980.105 993.500 C 980.495 989.772, 980.614 978.189, 980.276 976.750 C 979.886 975.089, 967.836 975.004, 743.683 975.086 C 599.684 975.138, 508.671 975.528, 510.500 976.084 M 1174.418 986 C 1174.810 987.375, 1175.952 993.920, 1176.955 1000.544 C 1180.317 1022.742, 1183.687 1031.965, 1191.284 1039.760 C 1195.504 1044.089, 1203.720 1048, 1208.597 1048 C 1209.983 1048, 1210.895 1048.360, 1210.623 1048.801 C 1210.351 1049.241, 1212.237 1050.208, 1214.814 1050.950 C 1221.439 1052.858, 1227.803 1056.196, 1233.699 1060.856 C 1238.041 1064.288, 1238.697 1064.554, 1238.214 1062.686 C 1236.503 1056.066, 1230.193 1050.451, 1223.302 1049.418 C 1218.706 1048.729, 1214.786 1045.998, 1200.784 1033.736 C 1189.999 1024.291, 1185.536 1016.345, 1177.394 992.089 C 1174.991 984.931, 1172.882 980.616, 1174.418 986 M 738.500 1029.430 C 743.450 1030.664, 753.575 1033.095, 761 1034.832 C 768.425 1036.569, 782.071 1039.792, 791.325 1041.995 L 808.149 1046 894.325 1045.998 L 980.500 1045.996 980.436 1038.248 C 980.401 1033.987, 980.288 1029.713, 980.186 1028.750 C 980.010 1027.093, 973.337 1027.005, 854.750 1027.093 L 729.500 1027.186 738.500 1029.430 M 990 1029 C 990 1029.550, 991.350 1030, 993 1030 L 996 1030 996 1038 C 996 1042.667, 996.417 1046, 997 1046 C 997.583 1046, 998 1042.667, 998 1038 L 998 1030 1001 1030 C 1002.650 1030, 1004 1029.550, 1004 1029 C 1004 1028.429, 1001 1028, 997 1028 C 993 1028, 990 1028.429, 990 1029 M 1006 1037 C 1006 1042.333, 1006.407 1046, 1007 1046 C 1007.567 1046, 1008 1043.100, 1008 1039.300 C 1008 1031.771, 1008.674 1031.933, 1011.960 1040.250 C 1013.210 1043.412, 1014.570 1046, 1014.983 1046 C 1015.395 1046, 1017.119 1042.963, 1018.814 1039.250 L 1021.894 1032.500 1021.947 1039.250 C 1021.977 1043.048, 1022.437 1046, 1023 1046 C 1023.593 1046, 1024 1042.309, 1024 1036.927 C 1024 1029.107, 1023.777 1027.898, 1022.385 1028.177 C 1021.480 1028.358, 1019.643 1031.250, 1018.208 1034.750 C 1016.800 1038.188, 1015.373 1041, 1015.039 1041 C 1014.704 1041, 1013.337 1038.075, 1012 1034.500 C 1010.256 1029.836, 1009.065 1028, 1007.785 1028 C 1006.204 1028, 1006 1029.029, 1006 1037 M 1274.655 1040.829 C 1273.745 1041.835, 1273 1042.976, 1273 1043.366 C 1273 1043.756, 1279.034 1051.142, 1286.409 1059.780 C 1293.784 1068.418, 1299.636 1075.780, 1299.413 1076.141 C 1298.426 1077.738, 1281.146 1084.112, 1273.732 1085.614 C 1258.975 1088.605, 1243.029 1086.109, 1237.441 1079.935 C 1234.898 1077.125, 1234 1077.541, 1234 1081.532 C 1234 1088.292, 1237.739 1094.042, 1242.968 1095.322 C 1245.874 1096.034, 1265.790 1093.265, 1288.402 1089.005 C 1310.408 1084.860, 1310.190 1084.929, 1311.261 1081.718 C 1312.261 1078.716, 1312.894 1079.641, 1299.494 1064.500 C 1284.914 1048.027, 1276.796 1039, 1276.561 1039 C 1276.423 1039, 1275.565 1039.823, 1274.655 1040.829" stroke="none" fill="#eb3e44" fill-rule="evenodd"/></svg>